# xmcd
#
# Track frame offsets:
#	150
#	19431
#	37511
#	54509
#	73594
#	88972
#	107122
#	126736
#	145745
#	162021
#	180971
#	196157
#
# Disc length: 2792 seconds
#
# Revision: 1
# Processed by: cddbd v1.5.1PL0 Copyright (c) Steve Scherf et al.
# Submitted via: audiograbber 1.83.01
#
DISCID=a00ae60c
DTITLE=Michael Wendler - Disco
DYEAR=1900
DGENRE=
TTITLE0=Die Engel Fliehn
TTITLE1=Lass Uns Sündigen
TTITLE2=Disco
TTITLE3=Wenn Alle Stricke Reißen
TTITLE4=Frauen Können Luder Sein
TTITLE5=Die Geier Kreisen Schon
TTITLE6=Es Ist Nicht Alles Gold
TTITLE7=Suche Treuen Löwen 2005
TTITLE8=Keine Panik
TTITLE9=Rette Sich Wer Kann
TTITLE10=Helden Sterben Einsam
TTITLE11=Darüber Stehn
EXTD=
EXTT0=
EXTT1=
EXTT2=
EXTT3=
EXTT4=
EXTT5=
EXTT6=
EXTT7=
EXTT8=
EXTT9=
EXTT10=
EXTT11=
PLAYORDER=
